<svg width="224" height="143" viewBox="0 0 224 143" fill="none" xmlns="http://www.w3.org/2000/svg">
<path d="M116.75 3.31976L142.257 18.0463C145.196 19.7433 147.007 22.8795 147.007 26.2735V55.7265C147.007 59.1205 145.196 62.2567 142.257 63.9537L116.75 78.6802C113.811 80.3773 110.189 80.3773 107.25 78.6802L81.743 63.9537C78.8036 62.2567 76.993 59.1205 76.993 55.7265V26.2735C76.993 22.8795 78.8036 19.7433 81.743 18.0463L107.25 3.31976C110.189 1.62275 113.811 1.62275 116.75 3.31976Z" stroke="#FFAE00"/>
<path d="M152.75 64.3198L178.257 79.0463C181.196 80.7433 183.007 83.8795 183.007 87.2735V116.726C183.007 120.121 181.196 123.257 178.257 124.954L152.75 139.68C149.811 141.377 146.189 141.377 143.25 139.68L117.743 124.954C114.804 123.257 112.993 120.121 112.993 116.726V87.2735C112.993 83.8795 114.804 80.7433 117.743 79.0463L143.25 64.3198C146.189 62.6228 149.811 62.6228 152.75 64.3198Z" stroke="#FFAE00"/>
<path d="M81.75 64.3198L107.257 79.0463C110.196 80.7433 112.007 83.8795 112.007 87.2735V116.726C112.007 120.121 110.196 123.257 107.257 124.954L81.75 139.68C78.8107 141.377 75.1893 141.377 72.25 139.68L46.743 124.954C43.8036 123.257 41.993 120.121 41.993 116.726V87.2735C41.993 83.8795 43.8036 80.7433 46.743 79.0463L72.25 64.3198C75.1893 62.6228 78.8107 62.6228 81.75 64.3198Z" stroke="#FFAE00"/>
<path d="M45.75 3.31976L71.257 18.0463C74.1964 19.7433 76.007 22.8795 76.007 26.2735V55.7265C76.007 59.1205 74.1964 62.2567 71.257 63.9537L45.75 78.6802C42.8107 80.3773 39.1893 80.3773 36.25 78.6802L10.743 63.9537C7.80365 62.2567 5.99296 59.1205 5.99296 55.7265V26.2735C5.99296 22.8795 7.80365 19.7433 10.743 18.0463L36.25 3.31976C39.1893 1.62275 42.8107 1.62275 45.75 3.31976Z" stroke="#FFAE00"/>
<path d="M22.48 53C20.96 53 19.78 52.6 18.94 51.8C18.1 51 17.68 49.88 17.68 48.44V36.44C17.68 35.04 18.08 33.95 18.88 33.17C19.7 32.39 20.83 32 22.27 32H29.2C31.52 32 33.31 32.49 34.57 33.47C35.83 34.45 36.46 35.87 36.46 37.73C36.46 38.65 36.19 39.51 35.65 40.31C35.11 41.09 34.41 41.68 33.55 42.08V42.11C34.51 42.49 35.29 43.1 35.89 43.94C36.51 44.76 36.82 45.65 36.82 46.61C36.82 48.61 36.17 50.18 34.87 51.32C33.59 52.44 31.82 53 29.56 53H22.48ZM29.2 40.67C30.22 40.67 31.01 40.42 31.57 39.92C32.15 39.42 32.44 38.7 32.44 37.76C32.44 36.84 32.17 36.16 31.63 35.72C31.09 35.28 30.28 35.06 29.2 35.06H22.9C22.5 35.06 22.18 35.19 21.94 35.45C21.72 35.71 21.61 36.07 21.61 36.53V40.67H29.2ZM29.2 49.94C31.6 49.94 32.8 48.85 32.8 46.67C32.8 45.73 32.48 45 31.84 44.48C31.22 43.96 30.34 43.7 29.2 43.7H21.61V48.47C21.61 48.93 21.72 49.29 21.94 49.55C22.18 49.81 22.5 49.94 22.9 49.94H29.2ZM52.187 53C50.667 53 49.487 52.6 48.647 51.8C47.807 51 47.387 49.88 47.387 48.44V33.5C47.387 32.94 47.567 32.5 47.927 32.18C48.287 31.86 48.767 31.7 49.367 31.7C49.967 31.7 50.447 31.87 50.807 32.21C51.187 32.53 51.377 32.96 51.377 33.5V48.44C51.377 48.9 51.487 49.26 51.707 49.52C51.947 49.78 52.267 49.91 52.667 49.91H62.267C62.867 49.91 63.327 50.05 63.647 50.33C63.967 50.59 64.127 50.97 64.127 51.47C64.127 51.95 63.957 52.33 63.617 52.61C63.297 52.87 62.847 53 62.267 53H52.187Z" fill="#494949"/>
<path d="M98.6 53.3C96.26 53.3 94.24 52.85 92.54 51.95C90.86 51.03 89.58 49.76 88.7 48.14C87.82 46.5 87.38 44.62 87.38 42.5C87.38 40.38 87.82 38.51 88.7 36.89C89.58 35.25 90.86 33.98 92.54 33.08C94.24 32.16 96.26 31.7 98.6 31.7C100.94 31.7 102.95 32.16 104.63 33.08C106.33 33.98 107.62 35.25 108.5 36.89C109.38 38.51 109.82 40.38 109.82 42.5C109.82 44.62 109.38 46.5 108.5 48.14C107.62 49.76 106.33 51.03 104.63 51.95C102.95 52.85 100.94 53.3 98.6 53.3ZM98.6 50.15C100.88 50.15 102.65 49.47 103.91 48.11C105.17 46.73 105.8 44.86 105.8 42.5C105.8 40.12 105.14 38.25 103.82 36.89C102.52 35.53 100.68 34.85 98.3 34.85C96.12 34.85 94.42 35.55 93.2 36.95C92 38.33 91.4 40.18 91.4 42.5C91.4 44.86 92.03 46.73 93.29 48.11C94.55 49.47 96.32 50.15 98.6 50.15ZM131.085 53.3C128.825 53.3 126.865 52.87 125.205 52.01C123.545 51.15 122.275 49.91 121.395 48.29C120.515 46.67 120.075 44.75 120.075 42.53C120.075 40.31 120.515 38.39 121.395 36.77C122.275 35.13 123.535 33.88 125.175 33.02C126.835 32.14 128.785 31.7 131.025 31.7C132.885 31.7 134.605 32.02 136.185 32.66C137.765 33.3 138.935 34.15 139.695 35.21C139.935 35.53 140.055 35.86 140.055 36.2C140.055 36.7 139.785 37.15 139.245 37.55C139.005 37.73 138.705 37.82 138.345 37.82C138.045 37.82 137.745 37.76 137.445 37.64C137.145 37.5 136.895 37.31 136.695 37.07C136.015 36.29 135.225 35.73 134.325 35.39C133.425 35.03 132.325 34.85 131.025 34.85C128.845 34.85 127.145 35.53 125.925 36.89C124.705 38.23 124.095 40.11 124.095 42.53C124.095 44.93 124.705 46.8 125.925 48.14C127.165 49.48 128.885 50.15 131.085 50.15C132.905 50.15 134.325 49.8 135.345 49.1C136.385 48.4 136.905 47.43 136.905 46.19V45.53C136.905 45.11 136.805 44.82 136.605 44.66C136.425 44.5 136.105 44.42 135.645 44.42H131.715C131.155 44.42 130.715 44.29 130.395 44.03C130.075 43.75 129.915 43.37 129.915 42.89C129.915 42.39 130.065 42.01 130.365 41.75C130.685 41.47 131.135 41.33 131.715 41.33H137.535C138.695 41.33 139.545 41.58 140.085 42.08C140.625 42.56 140.895 43.33 140.895 44.39V45.56C140.895 47.08 140.485 48.43 139.665 49.61C138.845 50.77 137.685 51.68 136.185 52.34C134.705 52.98 133.005 53.3 131.085 53.3Z" fill="#494949"/>
<path d="M61.2801 113.3C60.6801 113.3 60.2001 113.14 59.8401 112.82C59.4801 112.5 59.3001 112.06 59.3001 111.5V93.5C59.3001 92.94 59.4801 92.5 59.8401 92.18C60.2001 91.86 60.6801 91.7 61.2801 91.7C61.8801 91.7 62.3601 91.87 62.7201 92.21C63.1001 92.53 63.2901 92.96 63.2901 93.5V100.67H74.0601V93.5C74.0601 92.96 74.2401 92.53 74.6001 92.21C74.9801 91.87 75.4701 91.7 76.0701 91.7C76.6701 91.7 77.1501 91.86 77.5101 92.18C77.8701 92.5 78.0501 92.94 78.0501 93.5V111.5C78.0501 112.06 77.8701 112.5 77.5101 112.82C77.1501 113.14 76.6701 113.3 76.0701 113.3C75.4701 113.3 74.9801 113.14 74.6001 112.82C74.2401 112.48 74.0601 112.04 74.0601 111.5V103.76H63.2901V111.5C63.2901 112.04 63.1001 112.48 62.7201 112.82C62.3601 113.14 61.8801 113.3 61.2801 113.3ZM91.7993 113.3C91.1993 113.3 90.7193 113.14 90.3593 112.82C89.9993 112.5 89.8193 112.06 89.8193 111.5V93.5C89.8193 92.94 89.9993 92.5 90.3593 92.18C90.7193 91.86 91.1993 91.7 91.7993 91.7C92.3793 91.7 92.8593 91.86 93.2393 92.18C93.6193 92.5 93.8093 92.94 93.8093 93.5V111.5C93.8093 112.06 93.6193 112.5 93.2393 112.82C92.8593 113.14 92.3793 113.3 91.7993 113.3Z" fill="#FFAE00"/>
<path d="M134.487 113.3C133.087 113.3 131.927 112.82 131.007 111.86C130.087 110.88 129.277 109.27 128.577 107.03L124.407 93.77C124.327 93.53 124.287 93.28 124.287 93.02C124.287 92.14 124.907 91.7 126.147 91.7C126.767 91.7 127.237 91.82 127.557 92.06C127.897 92.3 128.147 92.69 128.307 93.23L132.447 106.73C132.827 107.95 133.177 108.83 133.497 109.37C133.817 109.91 134.147 110.18 134.487 110.18C134.827 110.18 135.157 109.91 135.477 109.37C135.797 108.83 136.147 107.95 136.527 106.73L140.667 93.23C140.827 92.69 141.067 92.3 141.387 92.06C141.727 91.82 142.207 91.7 142.827 91.7C144.067 91.7 144.687 92.14 144.687 93.02C144.687 93.28 144.647 93.53 144.567 93.77L140.397 107.03C139.697 109.27 138.887 110.88 137.967 111.86C137.047 112.82 135.887 113.3 134.487 113.3ZM160.061 113C158.541 113 157.361 112.6 156.521 111.8C155.681 111 155.261 109.88 155.261 108.44V96.44C155.261 95.04 155.661 93.95 156.461 93.17C157.281 92.39 158.411 92 159.851 92H169.181C169.781 92 170.241 92.14 170.561 92.42C170.881 92.68 171.041 93.06 171.041 93.56C171.041 94.04 170.871 94.42 170.531 94.7C170.211 94.96 169.761 95.09 169.181 95.09H160.541C160.141 95.09 159.821 95.22 159.581 95.48C159.361 95.74 159.251 96.1 159.251 96.56V100.73H166.901C167.501 100.73 167.961 100.87 168.281 101.15C168.601 101.41 168.761 101.79 168.761 102.29C168.761 102.77 168.591 103.15 168.251 103.43C167.931 103.69 167.481 103.82 166.901 103.82H159.251V108.44C159.251 108.9 159.361 109.26 159.581 109.52C159.821 109.78 160.141 109.91 160.541 109.91H169.841C170.441 109.91 170.901 110.05 171.221 110.33C171.541 110.59 171.701 110.97 171.701 111.47C171.701 111.95 171.531 112.33 171.191 112.61C170.871 112.87 170.421 113 169.841 113H160.061Z" fill="#FFAE00"/>
<path d="M187.75 3.31976L213.257 18.0463C216.196 19.7433 218.007 22.8795 218.007 26.2735V55.7265C218.007 59.1205 216.196 62.2567 213.257 63.9537L187.75 78.6802C184.811 80.3773 181.189 80.3773 178.25 78.6802L152.743 63.9537C149.804 62.2567 147.993 59.1205 147.993 55.7265V26.2735C147.993 22.8795 149.804 19.7433 152.743 18.0463L178.25 3.31976C181.189 1.62275 184.811 1.62275 187.75 3.31976Z" stroke="#FFAE00"/>
<path d="M199.767 42.1074C199.329 40.0853 198.25 38.3826 196.734 37.3183C195.334 36.325 192.767 36.0412 190.405 36.0058C191.134 34.7996 191.513 33.4161 191.513 31.9971C191.513 29.4075 190.23 27.1016 188.276 25.6826C188.334 24.8313 188.626 24.0508 189.122 23.4477C189.676 22.7737 190.405 22.419 191.192 22.419C191.98 22.419 192.709 22.7737 193.263 23.4477C193.496 23.7315 193.846 23.7315 194.08 23.4477C194.313 23.1639 194.313 22.7383 194.08 22.4545C193.321 21.5321 192.271 21 191.192 21C190.113 21 189.063 21.5321 188.305 22.4545C187.722 23.164 187.343 24.0508 187.197 25.0441C186.147 24.512 184.951 24.1927 183.668 24.1927C182.385 24.1927 181.189 24.512 180.139 25.0441C179.993 24.0863 179.614 23.1994 179.031 22.4545C178.272 21.5321 177.222 21 176.143 21C175.064 21 174.014 21.5321 173.256 22.4545C173.023 22.7383 173.023 23.1639 173.256 23.4477C173.489 23.7315 173.839 23.7315 174.073 23.4477C174.627 22.7737 175.356 22.419 176.143 22.419C176.931 22.419 177.66 22.7737 178.214 23.4477C178.71 24.0508 179.001 24.8313 179.06 25.6826C177.106 27.1016 175.822 29.4075 175.822 31.9971C175.822 33.4161 176.202 34.7996 176.931 36.0058C175.385 36.0058 173.752 36.1122 172.352 36.4669C172.031 36.5379 171.827 36.9281 171.885 37.3183C171.944 37.7085 172.264 37.9569 172.585 37.8859C175.298 37.2119 179.322 37.4957 180.897 37.6376C180.11 41.185 178.185 48.4219 176.202 49.8054C174.977 50.6568 173.548 50.9051 172.148 50.4439C170.777 49.9827 169.64 48.9185 168.91 47.4286C167.861 45.2291 167.977 42.4976 169.173 40.4401C169.348 40.1208 169.29 39.6951 169.027 39.4468C168.765 39.2339 168.415 39.3049 168.21 39.6242C166.723 42.1429 166.606 45.4775 167.861 48.1735C168.735 49.9827 170.135 51.2953 171.798 51.8629C172.352 52.0403 172.935 52.1467 173.489 52.1467C174.627 52.1467 175.735 51.7919 176.727 51.0825C176.785 51.047 176.843 50.976 176.902 50.9406C178.331 55.3039 180.839 58 183.609 58C186.322 58 188.83 55.3749 190.259 51.1179C191.251 51.7919 192.33 52.1467 193.438 52.1467C193.992 52.1467 194.575 52.0403 195.13 51.8629C196.792 51.3308 198.192 50.0182 199.067 48.1735C200 46.2934 200.233 44.1649 199.767 42.1074ZM178.476 36.0412C177.485 34.906 176.96 33.4871 176.96 31.9971C176.96 28.4851 179.964 25.6117 183.668 25.6117C187.372 25.6117 190.376 28.4851 190.376 31.9971C190.376 33.4516 189.851 34.8706 188.859 36.0058C186.963 36.0767 185.505 36.2541 185.359 36.2541C185.184 36.2895 185.039 36.396 184.951 36.5379C184.864 36.7152 184.834 36.9281 184.864 37.1055C184.893 37.2828 184.98 37.6731 185.097 38.2052C184.076 38.418 182.997 38.3826 181.976 38.1342C182.093 37.6376 182.151 37.2828 182.21 37.1055C182.239 36.8926 182.21 36.6798 182.122 36.5379C182.035 36.3605 181.86 36.2541 181.714 36.2541C181.568 36.2541 180.226 36.0767 178.476 36.0412ZM188.888 49.4151C187.255 50.0892 185.476 50.4439 183.668 50.4439C181.772 50.4439 179.935 50.0537 178.214 49.3087C178.71 48.4928 179.176 47.464 179.614 46.3643C180.926 46.7191 182.297 46.8965 183.697 46.8965C184.98 46.8965 186.263 46.7546 187.518 46.4353C187.897 47.535 188.392 48.5638 188.888 49.4151ZM180.722 43.0297C181.101 41.7526 181.422 40.5465 181.655 39.5532C182.297 39.7306 182.997 39.8015 183.668 39.8015C184.251 39.8015 184.834 39.7306 185.418 39.6242C185.651 40.6174 185.972 41.8236 186.351 43.1007C184.484 43.4554 182.56 43.4199 180.722 43.0297ZM183.668 56.4746C182.093 56.4746 180.635 55.3749 179.439 53.4238C180.81 53.814 182.21 53.9914 183.668 53.9914C185.097 53.9914 186.526 53.814 187.897 53.4238C186.701 55.3749 185.214 56.4746 183.668 56.4746ZM198.104 47.3931C197.404 48.883 196.238 49.9473 194.867 50.4084C193.496 50.8696 192.067 50.6213 190.813 49.7699C188.859 48.3864 186.934 41.1496 186.147 37.6021C188.772 37.3538 194.167 37.1409 196.15 38.5599C197.375 39.4113 198.25 40.8303 198.629 42.4976C199.008 44.1649 198.833 45.9032 198.104 47.3931Z" fill="#FFAB34"/>
<path d="M170.135 38.9855C170.252 38.9855 170.369 38.95 170.456 38.8436C170.573 38.7372 170.719 38.6308 170.864 38.5243C171.156 38.3115 171.244 37.8858 171.069 37.5665C170.894 37.2118 170.544 37.1053 170.281 37.3182C170.106 37.4246 169.96 37.5665 169.785 37.7084C169.523 37.9213 169.465 38.3824 169.64 38.7017C169.785 38.8791 169.96 38.9855 170.135 38.9855Z" fill="#FFAB34"/>
</svg>
